<svg width="626" height="193" viewBox="0 0 626 193" fill="none" xmlns="http://www.w3.org/2000/svg">
<path d="M60.791 33.2305H88.917V125.146C88.917 130.874 88.0524 136.035 86.3232 140.628C84.6481 145.113 82.1895 148.95 78.9473 152.138C75.7591 155.272 71.8955 157.676 67.3564 159.352C62.7633 160.973 57.6029 161.783 51.875 161.783H45.0664C39.3926 161.783 34.2591 160.973 29.666 159.352C25.127 157.676 21.2363 155.272 17.9941 152.138C14.806 148.95 12.3743 145.113 10.6992 140.628C8.97005 136.035 8.10547 130.874 8.10547 125.146V33.2305H36.2314V125.228C36.2314 129.28 37.096 132.09 38.8252 133.657C40.5003 135.116 43.3372 135.846 47.3359 135.846H49.6865C53.6852 135.846 56.4951 135.116 58.1162 133.657C59.8994 132.09 60.791 129.28 60.791 125.228V33.2305ZM160.56 96.6152C162.937 96.6152 164.828 96.3991 166.233 95.9668C167.692 95.5345 168.827 94.832 169.638 93.8594C170.394 92.8867 170.935 91.6169 171.259 90.0498C171.529 88.6449 171.664 86.7536 171.664 84.376V71.4072C171.664 69.0296 171.529 67.1383 171.259 65.7334C170.935 64.1663 170.394 62.8965 169.638 61.9238C168.827 60.9512 167.692 60.2487 166.233 59.8164C164.828 59.3841 162.937 59.168 160.56 59.168H147.186V96.6152H160.56ZM119.06 160V33.2305H162.829C174.825 33.2305 184.011 36.6077 190.388 43.3623C196.656 50.0088 199.79 59.3571 199.79 71.4072V84.376C199.79 96.4261 196.656 105.774 190.388 112.421C184.011 119.175 174.825 122.553 162.829 122.553H147.186V160H119.06ZM252.142 134.062H293.885V160H224.016V33.2305H252.142V134.062ZM351.991 112.907H366.419L359.205 74.8115L351.991 112.907ZM372.903 138.845H345.507L340.238 160H311.302L345.912 33.2305H372.579L407.109 160H378.253L372.903 138.845ZM478.832 94.2646V33.2305H506.958V160H479.886L454.273 98.9658V160H426.147V33.2305H453.219L478.832 94.2646ZM537.101 33.2305H577.466C590.219 33.2305 599.999 36.0944 606.808 41.8223C614.157 47.9824 617.831 57.3307 617.831 69.8672V123.363C617.831 135.9 614.157 145.248 606.808 151.408C599.999 157.136 590.219 160 577.466 160H537.101V33.2305ZM565.227 59.168V134.062H577.466C579.736 134.062 581.546 133.927 582.897 133.657C584.518 133.387 585.815 132.901 586.787 132.198C587.76 131.388 588.489 130.307 588.976 128.956C589.462 127.551 589.705 125.714 589.705 123.444V69.7861C589.705 67.5166 589.462 65.6794 588.976 64.2744C588.489 62.9235 587.76 61.8428 586.787 61.0322C585.815 60.3298 584.518 59.8434 582.897 59.5732C581.546 59.3031 579.736 59.168 577.466 59.168H565.227Z" fill="white"/>
</svg>
