<svg width="25" height="25" viewBox="0 0 25 25" fill="none" xmlns="http://www.w3.org/2000/svg">
<path fill-rule="evenodd" clip-rule="evenodd" d="M17.9519 0H6.68913C3.02357 0 0.0415039 2.98205 0.0415039 6.64759V17.9105C0.0415039 21.5758 3.02357 24.5578 6.68913 24.5578H17.9521C21.6174 24.5578 24.5995 21.5758 24.5995 17.9105V6.64759C24.5995 2.98205 21.6174 0 17.9519 0ZM12.3208 18.9944C8.61818 18.9944 5.60596 15.9822 5.60596 12.2796C5.60596 8.57693 8.61818 5.56472 12.3208 5.56472C16.0235 5.56472 19.0357 8.57693 19.0357 12.2796C19.0357 15.9822 16.0235 18.9944 12.3208 18.9944ZM17.2116 5.1638C17.2116 6.25799 18.1016 7.14796 19.1958 7.14796C20.29 7.14796 21.1802 6.25799 21.1802 5.1638C21.1802 4.06961 20.29 3.17945 19.1958 3.17945C18.1016 3.17945 17.2116 4.06961 17.2116 5.1638Z" fill="white"/>
<path d="M12.3213 7.00366C9.41272 7.00366 7.04614 9.37004 7.04614 12.2788C7.04614 15.1874 9.41272 17.554 12.3213 17.554C15.2301 17.554 17.5965 15.1874 17.5965 12.2788C17.5965 9.37004 15.2301 7.00366 12.3213 7.00366Z" fill="white"/>
</svg>
