<svg width="29" height="24" viewBox="0 0 29 24" fill="none" xmlns="http://www.w3.org/2000/svg">
<path d="M28.7583 2.73268C27.7114 3.19641 26.5881 3.5109 25.4079 3.65131C26.613 2.92991 27.5355 1.78567 27.9727 0.426417C26.8423 1.09448 25.5945 1.57957 24.265 1.84254C23.2004 0.70718 21.6861 0 20.0064 0C16.784 0 14.1713 2.61189 14.1713 5.83143C14.1713 6.28805 14.2228 6.73403 14.3224 7.16049C9.47372 6.91704 5.17426 4.59479 2.29668 1.06604C1.79367 1.92603 1.50752 2.9281 1.50752 3.99777C1.50752 6.02155 2.53841 7.80723 4.10252 8.85194C3.14627 8.81998 2.24691 8.55701 1.45956 8.11991V8.19276C1.45956 11.0179 3.47156 13.3756 6.13938 13.9123C5.65059 14.0437 5.13517 14.1166 4.60195 14.1166C4.22517 14.1166 3.86079 14.0793 3.50353 14.0082C4.24645 16.3269 6.40067 18.0131 8.953 18.0593C6.95699 19.6229 4.44021 20.5522 1.70662 20.5522C1.23563 20.5522 0.771709 20.5237 0.314941 20.4722C2.89748 22.13 5.96347 23.0965 9.25872 23.0965C19.9923 23.0965 25.8594 14.209 25.8594 6.50131L25.8399 5.74618C26.9863 4.92879 27.978 3.90182 28.7583 2.73268Z" fill="white"/>
</svg>
