<svg width="26" height="29" viewBox="0 0 26 29" fill="none" xmlns="http://www.w3.org/2000/svg">
<path d="M2.99518 25.159H19.5488L18.7582 22.5417L20.6493 24.2011L22.3826 25.7893L25.5403 28.4873V2.93775C25.4614 1.34958 24.124 0 22.4662 0L3.00099 0.00356091C1.34435 0.00356091 0 1.35552 0 2.94368V22.2201C0 23.8949 1.34203 25.159 2.99518 25.159ZM15.2406 6.74555L15.2023 6.75979L15.2162 6.74555H15.2406ZM6.38159 8.25181C8.50957 6.66839 10.482 6.74436 10.482 6.74436L10.641 6.9046C8.03707 7.53963 6.85641 8.72897 6.85641 8.72897C6.85641 8.72897 7.17218 8.57111 7.72362 8.33015C11.2308 6.92003 15.0607 7.02211 18.6061 8.80731C18.6061 8.80731 17.4231 7.69512 14.9794 6.98294L15.1953 6.76573C15.5331 6.76691 17.321 6.83101 19.2342 8.26131C19.2342 8.26131 21.3749 12.0003 21.3749 16.5938C21.3041 16.506 20.0468 18.5713 16.8113 18.6425C16.8113 18.6425 16.2634 18.0087 15.8733 17.4556C17.7656 16.9001 18.4738 15.7891 18.4738 15.7891C17.8527 16.1891 17.2861 16.4265 16.8264 16.6639C16.1194 16.982 15.4113 17.1387 14.7043 17.2989C11.3561 17.8544 9.47661 16.925 7.7004 16.1879L7.09324 15.8722C7.09324 15.8722 7.80024 16.9832 9.61709 17.5387C9.13995 18.0953 8.66745 18.728 8.66745 18.728C5.43312 18.6497 4.25362 16.5843 4.25362 16.5843C4.25362 11.9836 6.38159 8.25181 6.38159 8.25181Z" fill="white"/>
<path d="M15.4494 15.1588C16.2748 15.1588 16.947 14.4466 16.947 13.5682C16.947 12.6958 16.2783 11.9836 15.4494 11.9836V11.9872C14.6275 11.9872 13.9542 12.697 13.9518 13.5753C13.9518 14.4466 14.624 15.1588 15.4494 15.1588Z" fill="white"/>
<path d="M10.0884 15.1588C10.9138 15.1588 11.586 14.4466 11.586 13.5682C11.586 12.6958 10.9185 11.9836 10.093 11.9836L10.0884 11.9872C9.26299 11.9872 8.59081 12.697 8.59081 13.5753C8.59081 14.4466 9.26299 15.1588 10.0884 15.1588Z" fill="white"/>
</svg>
