<svg width="31" height="28" viewBox="0 0 31 28" fill="none" xmlns="http://www.w3.org/2000/svg">
<path fill-rule="evenodd" clip-rule="evenodd" d="M24.413 11.6178C25.0142 11.0168 25.8324 10.6326 26.7621 10.6326C30.1898 10.6326 31.3302 15.224 28.2373 16.8102C28.3737 17.2997 28.4295 17.8449 28.4295 18.3654C28.4295 23.5578 22.5784 27.765 15.3636 27.765C8.17993 27.765 2.32882 23.5578 2.32882 18.3654C2.32882 17.8449 2.37841 17.3244 2.48998 16.835C-0.66491 15.2549 0.463163 10.6326 3.90936 10.6326C4.8391 10.6326 5.68825 11.0168 6.28947 11.6426C8.50843 10.1121 11.4588 9.12694 14.7376 8.99062L16.6219 0.464712C16.7025 0.1611 17 -0.0557654 17.3037 0.0247846L23.3407 1.36315C23.7498 0.576242 24.5742 0 25.5287 0C26.8985 0 27.9894 1.1215 27.9894 2.45987C27.9894 3.79824 26.8923 4.91975 25.5287 4.91975C24.1899 4.91975 23.099 3.82922 23.099 2.49085L17.6322 1.26402L15.9153 8.99682C19.2189 9.10215 22.2003 10.0873 24.413 11.6178ZM9.9522 14.7031C8.5824 14.7031 7.49151 15.7998 7.49151 17.1629C7.49151 18.5013 8.58859 19.598 9.9522 19.5918C11.291 19.5918 12.3819 18.5013 12.3819 17.1629C12.3819 15.7936 11.291 14.7031 9.9522 14.7031ZM20.7752 22.9564C18.519 25.2118 12.1535 25.2118 9.89734 22.9564C9.64941 22.7395 9.64941 22.3553 9.89734 22.1075C10.1143 21.8906 10.4986 21.8906 10.7155 22.1075C12.4386 23.8734 18.1533 23.9044 19.9508 22.1075C20.1678 21.8906 20.552 21.8906 20.769 22.1075C21.0231 22.3553 21.0231 22.7395 20.7752 22.9564ZM18.2959 17.1695C18.2959 18.5079 19.3868 19.5984 20.7256 19.5984C22.0892 19.5984 23.1801 18.5017 23.1863 17.1695C23.1863 15.8002 22.0892 14.7096 20.7256 14.7096C19.3868 14.7096 18.2959 15.8064 18.2959 17.1695Z" fill="white"/>
</svg>
