<svg width="29" height="24" viewBox="0 0 29 24" fill="none" xmlns="http://www.w3.org/2000/svg">
<path fill-rule="evenodd" clip-rule="evenodd" d="M21.8157 22.882C22.1884 23.1457 22.6686 23.2117 23.0968 23.0497C23.525 22.8866 23.8398 22.521 23.9347 22.078C24.9403 17.3533 27.3798 5.39467 28.2952 1.09689C28.3647 0.772963 28.2489 0.436313 27.9943 0.219978C27.7397 0.00364207 27.3868 -0.0588291 27.072 0.0580152C22.2196 1.85348 7.27598 7.45854 1.16798 9.71791C0.780296 9.86137 0.528014 10.2339 0.540744 10.6423C0.554631 11.0518 0.830058 11.4069 1.227 11.5261C3.96622 12.3452 7.56182 13.4847 7.56182 13.4847C7.56182 13.4847 9.24216 18.5576 10.1182 21.1374C10.2281 21.4613 10.4816 21.7159 10.816 21.8038C11.1493 21.8905 11.5057 21.7991 11.7546 21.5643C13.1618 20.2362 15.3374 18.1828 15.3374 18.1828C15.3374 18.1828 19.4711 21.2126 21.8157 22.882ZM9.07517 12.8442L11.0182 19.2509L11.4499 15.1938C11.4499 15.1938 18.957 8.4249 23.2365 4.56673C23.3615 4.45336 23.3789 4.26363 23.2747 4.13059C23.1717 3.99755 22.9819 3.96631 22.8396 4.05655C17.8796 7.22291 9.07517 12.8442 9.07517 12.8442Z" fill="white"/>
</svg>
