<svg width="756" height="276" viewBox="0 0 756 276" fill="none" xmlns="http://www.w3.org/2000/svg">
<path d="M135.346 226.486C135.346 227.821 135.099 228.951 134.603 229.877C134.108 230.782 133.441 231.514 132.601 232.074C131.761 232.634 130.792 233.043 129.693 233.302C128.595 233.56 127.454 233.689 126.269 233.689H123.524V242.314H118V219.444H126.399C127.648 219.444 128.811 219.573 129.887 219.831C130.986 220.068 131.933 220.467 132.73 221.027C133.548 221.565 134.183 222.286 134.636 223.191C135.109 224.074 135.346 225.172 135.346 226.486ZM129.823 226.518C129.823 225.98 129.715 225.538 129.5 225.194C129.284 224.849 128.994 224.58 128.627 224.386C128.261 224.192 127.841 224.063 127.368 223.998C126.915 223.934 126.442 223.902 125.946 223.902H123.524V229.296H125.849C126.366 229.296 126.862 229.253 127.335 229.167C127.809 229.081 128.229 228.93 128.595 228.715C128.983 228.499 129.284 228.219 129.5 227.875C129.715 227.509 129.823 227.056 129.823 226.518Z" fill="white"/>
<path d="M146.738 242.314V219.444H152.294V237.501H161.145V242.314H146.738Z" fill="white"/>
<path d="M187.321 242.314L185.545 237.824H176.694L175.014 242.314H169.006L178.6 219.444H183.962L193.459 242.314H187.321ZM181.184 225.549L178.277 233.398H184.026L181.184 225.549Z" fill="white"/>
<path d="M212.612 232.623V242.314H207.088V232.623L198.496 219.444H205.183L210.06 227.907L214.938 219.444H221.398L212.612 232.623Z" fill="white"/>
<path d="M234.41 239.471C234.41 240.376 234.087 241.129 233.441 241.732C232.817 242.335 232.063 242.637 231.18 242.637C230.728 242.637 230.297 242.551 229.888 242.378C229.5 242.228 229.156 242.012 228.854 241.732C228.553 241.452 228.316 241.129 228.144 240.763C227.972 240.376 227.885 239.956 227.885 239.504C227.885 239.073 227.972 238.664 228.144 238.276C228.316 237.888 228.553 237.555 228.854 237.275C229.156 236.973 229.5 236.736 229.888 236.564C230.297 236.392 230.728 236.306 231.18 236.306C232.063 236.306 232.817 236.607 233.441 237.21C234.087 237.813 234.41 238.567 234.41 239.471Z" fill="white"/>
<path d="M261.594 242.314V219.444H276.97V224.128H266.924V228.424H276.421V232.849H266.924V237.598H277.551V242.314H261.594Z" fill="white"/>
<path d="M304.796 242.314L303.019 237.824H294.168L292.488 242.314H286.48L296.074 219.444H301.436L310.933 242.314H304.796ZM298.658 225.549L295.751 233.398H301.501L298.658 225.549Z" fill="white"/>
<path d="M333.141 242.314L328.199 233.237H326.326V242.314H320.899V219.444H329.62C330.719 219.444 331.785 219.562 332.818 219.799C333.874 220.014 334.81 220.391 335.629 220.93C336.469 221.468 337.136 222.179 337.631 223.062C338.127 223.945 338.374 225.043 338.374 226.357C338.374 227.907 337.954 229.21 337.115 230.265C336.275 231.32 335.112 232.074 333.626 232.526L339.602 242.314H333.141ZM332.915 226.453C332.915 225.915 332.797 225.484 332.56 225.161C332.345 224.817 332.054 224.558 331.688 224.386C331.343 224.192 330.945 224.063 330.493 223.998C330.062 223.934 329.642 223.902 329.233 223.902H326.293V229.231H328.91C329.362 229.231 329.825 229.199 330.299 229.135C330.773 229.048 331.203 228.908 331.591 228.715C331.979 228.521 332.291 228.241 332.528 227.875C332.786 227.509 332.915 227.035 332.915 226.453Z" fill="white"/>
<path d="M364.93 242.314L355.724 227.358H355.627L355.756 242.314H350.394V219.444H356.693L365.866 234.367H365.963L365.834 219.444H371.196V242.314H364.93Z" fill="white"/>
<path d="M389.739 239.471C389.739 240.376 389.416 241.129 388.77 241.732C388.146 242.335 387.392 242.637 386.509 242.637C386.057 242.637 385.626 242.551 385.217 242.378C384.829 242.228 384.485 242.012 384.183 241.732C383.882 241.452 383.645 241.129 383.472 240.763C383.3 240.376 383.214 239.956 383.214 239.504C383.214 239.073 383.3 238.664 383.472 238.276C383.645 237.888 383.882 237.555 384.183 237.275C384.485 236.973 384.829 236.736 385.217 236.564C385.626 236.392 386.057 236.306 386.509 236.306C387.392 236.306 388.146 236.607 388.77 237.21C389.416 237.813 389.739 238.567 389.739 239.471Z" fill="white"/>
<path d="M437.047 239.148C436.035 240.311 434.786 241.237 433.3 241.926C431.814 242.594 430.102 242.928 428.164 242.928C426.398 242.928 424.761 242.637 423.254 242.055C421.768 241.474 420.476 240.656 419.377 239.6C418.279 238.524 417.418 237.242 416.793 235.756C416.169 234.271 415.857 232.634 415.857 230.847C415.857 229.016 416.169 227.358 416.793 225.872C417.439 224.386 418.322 223.126 419.442 222.093C420.562 221.037 421.876 220.23 423.383 219.67C424.89 219.11 426.516 218.83 428.261 218.83C429.876 218.83 431.459 219.121 433.009 219.702C434.581 220.262 435.852 221.091 436.821 222.19L433.074 225.937C432.557 225.226 431.878 224.698 431.039 224.354C430.199 224.009 429.337 223.837 428.454 223.837C427.485 223.837 426.592 224.02 425.773 224.386C424.977 224.731 424.287 225.215 423.706 225.84C423.125 226.464 422.672 227.207 422.349 228.069C422.026 228.908 421.865 229.834 421.865 230.847C421.865 231.88 422.026 232.828 422.349 233.689C422.672 234.551 423.114 235.293 423.674 235.918C424.255 236.521 424.944 236.995 425.741 237.339C426.538 237.684 427.41 237.856 428.358 237.856C429.456 237.856 430.414 237.641 431.232 237.21C432.051 236.779 432.708 236.219 433.203 235.53L437.047 239.148Z" fill="white"/>
<path d="M470.95 230.782C470.95 232.591 470.638 234.249 470.014 235.756C469.389 237.242 468.517 238.524 467.397 239.6C466.299 240.656 464.985 241.474 463.456 242.055C461.927 242.637 460.269 242.928 458.482 242.928C456.694 242.928 455.036 242.637 453.507 242.055C452 241.474 450.686 240.656 449.566 239.6C448.468 238.524 447.607 237.242 446.982 235.756C446.358 234.249 446.045 232.591 446.045 230.782C446.045 228.951 446.358 227.304 446.982 225.84C447.607 224.354 448.468 223.094 449.566 222.06C450.686 221.027 452 220.23 453.507 219.67C455.036 219.11 456.694 218.83 458.482 218.83C460.269 218.83 461.927 219.11 463.456 219.67C464.985 220.23 466.299 221.027 467.397 222.06C468.517 223.094 469.389 224.354 470.014 225.84C470.638 227.304 470.95 228.951 470.95 230.782ZM465.039 230.782C465.039 229.791 464.878 228.865 464.555 228.004C464.231 227.143 463.779 226.41 463.198 225.807C462.638 225.183 461.949 224.698 461.13 224.354C460.334 223.988 459.451 223.805 458.482 223.805C457.513 223.805 456.63 223.988 455.833 224.354C455.036 224.698 454.347 225.183 453.766 225.807C453.184 226.41 452.732 227.143 452.409 228.004C452.107 228.865 451.957 229.791 451.957 230.782C451.957 231.816 452.118 232.774 452.441 233.657C452.764 234.518 453.206 235.261 453.766 235.886C454.347 236.51 455.036 237.006 455.833 237.372C456.63 237.716 457.513 237.888 458.482 237.888C459.451 237.888 460.334 237.716 461.13 237.372C461.927 237.006 462.616 236.51 463.198 235.886C463.779 235.261 464.231 234.518 464.555 233.657C464.878 232.774 465.039 231.816 465.039 230.782Z" fill="white"/>
<path d="M497.199 242.314L487.993 227.358H487.896L488.025 242.314H482.663V219.444H488.962L498.136 234.367H498.232L498.103 219.444H503.465V242.314H497.199Z" fill="white"/>
<path d="M530.794 242.314L521.588 227.358H521.491L521.621 242.314H516.258V219.444H522.557L531.731 234.367H531.828L531.699 219.444H537.061V242.314H530.794Z" fill="white"/>
<path d="M549.854 242.314V219.444H565.23V224.128H555.184V228.424H564.681V232.849H555.184V237.598H565.811V242.314H549.854Z" fill="white"/>
<path d="M597.675 239.148C596.663 240.311 595.414 241.237 593.928 241.926C592.442 242.594 590.73 242.928 588.792 242.928C587.026 242.928 585.389 242.637 583.882 242.055C582.396 241.474 581.104 240.656 580.006 239.6C578.907 238.524 578.046 237.242 577.422 235.756C576.797 234.271 576.485 232.634 576.485 230.847C576.485 229.016 576.797 227.358 577.422 225.872C578.068 224.386 578.951 223.126 580.07 222.093C581.19 221.037 582.504 220.23 584.011 219.67C585.519 219.11 587.145 218.83 588.889 218.83C590.504 218.83 592.087 219.121 593.637 219.702C595.209 220.262 596.48 221.091 597.449 222.19L593.702 225.937C593.185 225.226 592.507 224.698 591.667 224.354C590.827 224.009 589.966 223.837 589.083 223.837C588.114 223.837 587.22 224.02 586.402 224.386C585.605 224.731 584.916 225.215 584.334 225.84C583.753 226.464 583.301 227.207 582.978 228.069C582.654 228.908 582.493 229.834 582.493 230.847C582.493 231.88 582.654 232.828 582.978 233.689C583.301 234.551 583.742 235.293 584.302 235.918C584.883 236.521 585.572 236.995 586.369 237.339C587.166 237.684 588.038 237.856 588.986 237.856C590.084 237.856 591.042 237.641 591.861 237.21C592.679 236.779 593.336 236.219 593.831 235.53L597.675 239.148Z" fill="white"/>
<path d="M617.716 224.16V242.314H612.193V224.16H605.732V219.444H624.177V224.16H617.716Z" fill="white"/>
<path d="M638 239.471C638 240.376 637.677 241.129 637.031 241.732C636.406 242.335 635.653 242.637 634.77 242.637C634.317 242.637 633.887 242.551 633.478 242.378C633.09 242.228 632.745 242.012 632.444 241.732C632.142 241.452 631.906 241.129 631.733 240.763C631.561 240.376 631.475 239.956 631.475 239.504C631.475 239.073 631.561 238.664 631.733 238.276C631.906 237.888 632.142 237.555 632.444 237.275C632.745 236.973 633.09 236.736 633.478 236.564C633.887 236.392 634.317 236.306 634.77 236.306C635.653 236.306 636.406 236.607 637.031 237.21C637.677 237.813 638 238.567 638 239.471Z" fill="white"/>
<path d="M125.313 32H153.343V123.733C153.343 129.406 152.497 134.596 150.806 139.183C149.235 143.528 146.698 147.39 143.436 150.649C140.295 153.788 136.429 156.202 131.958 157.891C127.367 159.461 122.172 160.306 116.494 160.306H109.728C104.05 160.306 98.9755 159.461 94.3845 157.891C90.0351 156.322 86.0482 153.908 82.7861 150.649C79.5241 147.39 77.1078 143.407 75.5371 139.183C73.8457 134.596 73 129.527 73 123.733V32H101.029V123.854C101.029 127.837 101.875 130.734 103.567 132.303C105.258 133.751 108.037 134.475 112.024 134.475H114.319C118.306 134.475 121.085 133.751 122.656 132.303C124.468 130.734 125.313 127.958 125.313 123.854V32ZM225.518 95.2475C227.935 95.2475 229.747 95.0061 231.197 94.644C232.646 94.1612 233.734 93.5577 234.58 92.5921C235.304 91.6265 235.909 90.2987 236.15 88.8503C236.392 86.9191 236.633 85.1086 236.513 83.1774V70.1416C236.513 68.2104 236.392 66.3999 236.15 64.4687C235.788 62.8995 235.304 61.6925 234.58 60.7269C233.734 59.7613 232.646 59.0371 231.197 58.675C229.747 58.1922 227.935 58.0715 225.518 58.0715H212.229V95.4889L225.518 95.2475ZM184.078 158.495V32H227.693C239.654 32 248.836 35.3796 255.118 42.1389C261.401 48.7775 264.421 58.0715 264.421 70.1416V83.0567C264.421 95.1268 261.28 104.421 255.118 111.059C248.715 117.819 239.654 121.198 227.693 121.198H212.108V158.616H184.078V158.495ZM317.387 132.544H358.948V158.374H289.357V32H317.387V132.544ZM417.592 111.421H431.969L424.841 73.4006L417.592 111.421ZM438.372 137.372H411.068L405.873 158.495H376.997L411.551 32H438.131L472.563 158.495H443.809L438.372 137.372ZM543.739 92.8335V32H571.768V158.495H544.826L519.334 97.5408V158.495H491.304V32H518.246L543.739 92.8335ZM602.504 32H642.735C655.421 32 665.207 34.8968 671.973 40.5698C679.343 46.7256 682.967 56.0196 682.967 68.5725V121.922C682.967 134.475 679.343 143.769 671.973 149.925C665.207 155.598 655.421 158.495 642.735 158.495H602.504V32ZM630.533 57.8301V132.544H642.735C644.548 132.544 646.36 132.424 648.172 132.182C649.743 131.941 651.072 131.458 652.038 130.734C653.005 129.889 653.73 128.802 654.213 127.475C654.696 126.026 654.938 124.216 654.938 122.043V68.4518C654.938 66.1585 654.696 64.348 654.213 63.0202C653.73 61.8132 653.005 60.6062 652.038 59.7613C651.072 59.0371 649.743 58.5543 648.172 58.3129C646.36 58.0715 644.548 57.8301 642.735 57.9508H630.533V57.8301Z" fill="white"/>
</svg>
