<svg width="112" height="112" viewBox="0 0 112 112" fill="none" xmlns="http://www.w3.org/2000/svg">
<path d="M79.1423 22.2808L22.2808 79.1423C19.29 82.1331 19.2332 86.9254 22.1539 89.8461C25.0746 92.7668 29.8669 92.71 32.8577 89.7192L89.7192 32.8577C92.71 29.8669 92.7668 25.0746 89.8461 22.1539C86.9254 19.2332 82.1331 19.29 79.1423 22.2808Z" fill="white"/>
<path d="M22.2808 32.8577L79.1423 89.7192C82.1331 92.71 86.9254 92.7668 89.8461 89.8461C92.7668 86.9254 92.71 82.1331 89.7192 79.1423L32.8577 22.2808C29.8669 19.29 25.0746 19.2332 22.1539 22.1539C19.2332 25.0746 19.29 29.8669 22.2808 32.8577Z" fill="white"/>
</svg>
