<svg width="32" height="32" viewBox="0 0 32 32" fill="none" xmlns="http://www.w3.org/2000/svg">
<path fill-rule="evenodd" clip-rule="evenodd" d="M18.5613 2.56C18.5613 1.14615 17.4152 0 16.0013 0C14.5875 0 13.4413 1.14615 13.4413 2.56V13.4404H2.56C1.14615 13.4404 0 14.5865 0 16.0004C0 17.4142 1.14615 18.5604 2.56 18.5604H13.4413V29.44C13.4413 30.8538 14.5875 32 16.0013 32C17.4152 32 18.5613 30.8538 18.5613 29.44V18.5604H29.44C30.8538 18.5604 32 17.4142 32 16.0004C32 14.5865 30.8538 13.4404 29.44 13.4404H18.5613V2.56Z" fill="#232323"/>
</svg>
