<svg width="90" height="90" viewBox="0 0 90 90" fill="none" xmlns="http://www.w3.org/2000/svg">
<path fill-rule="evenodd" clip-rule="evenodd" d="M39.3169 65.6253V87.191C39.3169 88.7843 38.0577 90 36.5044 90C34.9965 90 33.6919 88.7423 33.6919 87.191V76.311L16.8295 60.3331L20.6984 56.25L33.6919 68.5619V33.75H39.3169V57.7142L57.0393 40.1877L60.9946 44.1873L39.3169 65.6253Z" fill="white"/>
<path d="M19.642 67.5C24.3019 67.5 28.0795 63.7224 28.0795 59.0625C28.0795 54.4026 24.3019 50.625 19.642 50.625C14.9821 50.625 11.2045 54.4026 11.2045 59.0625C11.2045 63.7224 14.9821 67.5 19.642 67.5Z" fill="white"/>
<path fill-rule="evenodd" clip-rule="evenodd" d="M21.6803 46.6312C19.6046 48.3145 16.9604 49.323 14.081 49.323C7.40883 49.323 2 43.9084 2 37.2292C2 33.6436 3.55881 30.4224 6.03505 28.2077C5.65632 27.0348 5.4517 25.7836 5.4517 24.4845C5.4517 17.8053 10.8605 12.3907 17.5327 12.3907C19.3587 12.3907 21.0901 12.7963 22.642 13.5224C22.6594 13.5093 22.6769 13.4962 22.6944 13.4832C24.0212 5.82438 30.6944 0 38.7269 0C47.7138 0 54.9992 7.29076 54.9992 16.2844C54.9992 17.1058 54.9384 17.9129 54.8211 18.7017C56.2575 18.2634 57.7823 18.0277 59.3622 18.0277C67.9407 18.0277 74.8949 24.9785 74.8949 33.5527C74.8949 42.1269 67.9407 49.0777 59.3622 49.0777C55.7792 49.0777 52.4795 47.8651 49.8515 45.828C46.061 49.4116 40.9453 51.6091 35.3163 51.6091C30.1208 51.6091 25.3628 49.7372 21.6803 46.6312Z" fill="white"/>
<path fill-rule="evenodd" clip-rule="evenodd" d="M73.0671 87.191C73.0671 88.7843 71.8079 90 70.2546 90C68.7468 90 67.4421 88.7423 67.4421 87.191V56.25H73.0671V87.191Z" fill="white"/>
<path fill-rule="evenodd" clip-rule="evenodd" d="M62.1007 75.5615C60.9907 76.4617 59.5767 77.001 58.0369 77.001C54.4689 77.001 51.5765 74.1055 51.5765 70.5337C51.5765 68.6162 52.4101 66.8937 53.7343 65.7094C53.5317 65.0821 53.4223 64.413 53.4223 63.7183C53.4223 60.1466 56.3147 57.2511 59.8827 57.2511C60.8592 57.2511 61.7851 57.468 62.615 57.8562C62.6243 57.8492 62.6336 57.8422 62.643 57.8353C63.3525 53.7396 66.9211 50.625 71.2165 50.625C76.0224 50.625 79.9183 54.5238 79.9183 59.3332C79.9183 59.6608 79.9003 59.9841 79.8651 60.3022C80.1239 60.2779 80.3862 60.2655 80.6514 60.2655C85.2388 60.2655 88.9576 63.9825 88.9576 68.5676C88.9576 73.1528 85.2388 76.8698 80.6514 76.8698C79.1254 76.8698 77.6955 76.4585 76.4667 75.7408C74.5293 77.2942 72.0696 78.2235 69.3927 78.2235C66.6144 78.2235 64.07 77.2225 62.1007 75.5615Z" fill="white"/>
</svg>
