<svg width="91" height="90" viewBox="0 0 91 90" fill="none" xmlns="http://www.w3.org/2000/svg">
<path d="M45.9577 0C37.0575 0 28.3572 2.6392 20.957 7.58387C13.5568 12.5285 7.78903 19.5566 4.38308 27.7792C0.977139 36.0019 0.0859894 45.0499 1.82232 53.7791C3.55866 62.5082 7.84449 70.5264 14.1379 76.8198C20.4312 83.1132 28.4495 87.399 37.1786 89.1353C45.9077 90.8717 54.9557 89.9805 63.1784 86.5746C71.4011 83.1686 78.4291 77.4009 83.3738 70.0007C88.3184 62.6004 90.9577 53.9002 90.9577 45C90.9577 33.0653 86.2166 21.6193 77.7775 13.1802C69.3383 4.74106 57.8924 0 45.9577 0V0ZM60.7446 65.3517C60.7446 67.6732 58.9309 66.6575 56.5371 70.3576C54.1433 74.0577 53.5623 75.8713 46.9604 75.8713C44.3486 75.8713 44.4212 72.534 44.4212 70.2126C44.4212 67.8912 41.229 63.6107 41.229 61.0715C41.229 58.5323 42.8252 58.4597 42.8252 53.9615C42.7085 52.7186 42.3161 51.5173 41.6766 50.4452C41.037 49.373 40.1664 48.457 39.1281 47.7639C38.7049 47.4229 38.4193 46.9404 38.3242 46.4053C38.229 45.8703 38.3307 45.3189 38.6104 44.8529C39.1299 44.0104 39.4315 43.0518 39.4879 42.0636C39.4879 39.8871 36.5858 39.9594 33.3937 39.9594C30.4556 40.005 27.5326 40.3895 24.6826 41.1052C23.9731 41.3131 23.2188 41.3121 22.5098 41.1024C21.8008 40.8926 21.1673 40.483 20.6851 39.9226C18.4211 37.5708 17.0412 34.5076 16.78 31.2536C16.78 19.8635 35.5701 10.9398 41.3741 15.2204C47.1781 19.501 51.7486 16.236 57.9153 19.1379C64.082 22.0399 67.5643 36.5497 69.1603 36.5497C70.6463 36.3905 72.112 36.0788 73.5342 35.6197C73.737 35.5635 73.9507 35.5588 74.1558 35.6061C74.3609 35.6533 74.551 35.7511 74.7087 35.8904C74.8665 36.0297 74.9869 36.2063 75.0592 36.404C75.1314 36.6017 75.1531 36.8142 75.1224 37.0225C73.9224 45.5135 64.9524 47.8197 64.9524 50.1891C64.9524 52.7281 66.5484 52.2929 66.5484 57.7341C66.5484 63.1754 60.7446 62.1595 60.7446 65.3517ZM70.6402 73.0433C69.0833 73.0433 68.4825 71.9236 68.4825 70.0117C68.4825 68.7005 70.886 67.4442 70.886 65.5325C71.0072 64.6372 71.4034 63.8017 72.0199 63.1412C72.6364 62.4807 73.4426 62.0279 74.3275 61.8453C75.4199 61.8453 75.6112 63.002 75.6112 63.7843C75.6111 66.9525 72.4974 73.0433 70.6402 73.0433Z" fill="white"/>
</svg>
