<svg width="91" height="90" viewBox="0 0 91 90" fill="none" xmlns="http://www.w3.org/2000/svg">
<path d="M70.1215 0C68.4647 0 67.1215 1.34315 67.1215 3C67.1215 4.65686 68.4647 6 70.1215 6H79.8715L67.0278 18.8438C62.255 14.5966 55.9905 12 49.1215 12C45.2075 12 41.4838 12.8359 38.1215 14.3438C34.7592 12.8359 31.0356 12 27.1215 12C12.2454 12 0.121521 24.1238 0.121521 39C0.121521 52.8602 10.6525 64.3414 24.1215 65.8438V73.0001H16.1215C14.4647 73.0001 13.1215 74.3432 13.1215 76.0001C13.1215 77.6569 14.4647 79.0001 16.1215 79.0001H24.1215V87.0001C24.1215 88.6569 25.4647 90.0001 27.1215 90.0001C28.7784 90.0001 30.1215 88.6569 30.1215 87.0001V79.0001H38.1215C39.7784 79.0001 41.1215 77.6569 41.1215 76.0001C41.1215 74.3432 39.7784 73.0001 38.1215 73.0001H30.1215V65.8438C32.9377 65.5297 35.6321 64.7728 38.1215 63.6562C41.4838 65.1641 45.2075 66.0001 49.1215 66.0001C63.9977 66.0001 76.1215 53.8762 76.1215 39.0001C76.1215 33.1434 74.2454 27.7129 71.059 23.2813L84.1215 10.2188L84.0903 19.9688L90.0903 20L90.1215 3C90.1214 2.20437 89.8053 1.44138 89.2428 0.878784C88.6802 0.316192 87.9171 7.95506e-05 87.1215 0H70.1215ZM90.0903 20H84.1215C84.1215 21.6569 85.4647 23 87.1215 23C88.7784 23 90.1215 21.6569 90.1215 20H90.0903H90.0903ZM27.1215 18C28.6672 18 30.1725 18.186 31.6215 18.5C25.8239 23.4579 22.1215 30.8003 22.1215 39C22.1215 47.1997 25.8239 54.5422 31.6215 59.5001C30.1725 59.8141 28.6672 60.0001 27.1215 60.0001C15.488 60.0001 6.12152 50.6335 6.12152 39C6.12152 27.3665 15.488 18 27.1215 18ZM49.1215 18C60.755 18 70.1215 27.3665 70.1215 39C70.1215 50.6335 60.755 60.0001 49.1215 60.0001C47.5759 60.0001 46.0705 59.8141 44.6215 59.5001C50.4191 54.5422 54.1215 47.1997 54.1215 39C54.1215 30.8002 50.4191 23.4579 44.6215 18.5C46.0705 18.186 47.5759 18 49.1215 18ZM38.1215 21.125C44.1184 24.8146 48.1215 31.4141 48.1215 39C48.1215 46.5858 44.1184 53.1855 38.1215 56.8751C32.1247 53.1855 28.1215 46.5858 28.1215 39C28.1215 31.4141 32.1247 24.8146 38.1215 21.125Z" fill="white"/>
</svg>
