<svg width="90" height="90" viewBox="0 0 90 90" fill="none" xmlns="http://www.w3.org/2000/svg">
<path d="M28.0112 20.1478C28.0112 16.1995 31.2116 13.0009 35.159 13.0009C39.1073 13.0009 42.3068 16.2004 42.3068 20.1478C42.3068 24.0952 39.1064 27.2965 35.159 27.2965C31.2116 27.2965 28.0112 24.0961 28.0112 20.1478ZM54.6044 27.2965C58.5527 27.2965 61.7531 24.0952 61.7531 20.1478C61.7531 16.2004 58.5527 13 54.6044 13C50.6561 13 47.4575 16.1995 47.4575 20.1469C47.4575 24.0943 50.6561 27.2965 54.6044 27.2965ZM13.7416 41.3644C16.5308 41.3644 18.7916 39.1036 18.7916 36.3154C18.7916 33.5254 16.5308 31.2655 13.7416 31.2655C10.9525 31.2655 8.69174 33.5263 8.69174 36.3154C8.69174 39.1036 10.9525 41.3644 13.7416 41.3644ZM76.2584 41.9098C79.0475 41.9098 81.3083 39.6481 81.3083 36.8599C81.3083 34.0717 79.0466 31.8109 76.2584 31.8109C73.4684 31.8109 71.2085 34.0717 71.2085 36.8599C71.2085 39.6481 73.4693 41.9098 76.2584 41.9098ZM71.0393 42.3211L68.8001 37.7059C66.1676 32.2618 64.5188 28.5268 59.2763 28.5268H49.9379C45.8393 28.5268 43.5632 31.144 41.5922 35.0617L41.3285 33.8053C41.3285 33.8053 42.5606 30.973 44.1149 29.7265C43.5911 29.281 41.5949 28.5277 39.8255 28.5277H30.488C25.2455 28.5277 23.4707 32.2627 20.8391 37.7068L18.8825 41.7379C21.0614 42.187 22.2377 43.7926 23.4572 46.1497L28.0013 37.3486L25.1177 51.3167L23.8577 48.7202C21.9983 44.8744 20.7446 42.2356 17.0411 42.2356H10.4413C6.73784 42.2356 5.48414 44.8744 3.62473 48.7202L0.213728 55.7501C-0.292973 56.7878 0.130028 58.0586 1.17853 58.5419C2.54833 59.171 3.61753 58.3223 3.98023 57.5798L8.68634 48.4654V74.7662C8.68634 76.0199 9.70244 77.0351 10.9561 77.0351C12.2098 77.0351 13.2259 76.019 13.2259 74.7662V61.0322H14.2582V74.7662C14.2582 76.0199 15.2743 77.0351 16.5281 77.0351C17.7818 77.0351 18.7979 76.019 18.7979 74.7662V48.4654L23.5031 57.5798C23.5643 57.7058 23.6471 57.8336 23.747 57.9587L22.9955 61.5992H28.0022V73.8671C28.0022 75.6419 29.4413 77.0801 31.2152 77.0801C32.9891 77.0801 34.4282 75.641 34.4282 73.8671V61.5983H35.8664V73.8419C35.8664 75.6167 37.3055 77.0549 39.0794 77.0549C40.8533 77.0549 42.2924 75.6158 42.2924 73.8419V61.5983H47.1731L43.6316 44.7592L47.4692 37.3477V73.8428C47.4692 75.6176 48.9083 77.0558 50.6822 77.0558C52.4561 77.0558 53.8952 75.6167 53.8952 73.8428V55.1354H55.3343V73.8671C55.3343 75.6419 56.7725 77.0801 58.5473 77.0801C60.3212 77.0801 61.7603 75.641 61.7603 73.8671V37.3477L66.5204 46.7446C67.7345 44.3992 68.8982 42.7927 71.0393 42.3211ZM89.7881 56.309L86.378 49.2818C84.5204 45.4378 83.2676 42.8017 79.5659 42.8017H72.9527C69.251 42.8017 67.9991 45.4387 66.1397 49.2818L62.7296 56.309C62.2229 57.3458 62.6567 58.5914 63.6935 59.0981C64.7303 59.6048 65.9876 59.1746 66.4934 58.1378L71.1959 49.0297L67.6616 66.1496H71.1959V74.8112C71.1959 76.064 72.212 77.0801 73.4648 77.0801C74.7176 77.0801 75.7328 76.064 75.7328 74.8112V66.1496H76.784V74.8112C76.784 76.064 77.7992 77.0801 79.052 77.0801C80.3057 77.0801 81.3209 76.064 81.3209 74.8112V66.1496H84.8552L81.3209 49.0297L86.0234 58.1378C86.5301 59.1746 87.7856 59.6048 88.8233 59.0981C89.861 58.5923 90.2948 57.3467 89.7881 56.309Z" fill="white"/>
</svg>
