<svg width="90" height="90" viewBox="0 0 90 90" fill="none" xmlns="http://www.w3.org/2000/svg">
<path d="M68.552 36.9229C56.7102 36.9229 47.105 46.523 47.105 58.3668C47.105 70.2116 56.7102 79.8138 68.552 79.8138C80.3937 79.8138 90 70.2116 90 58.3668C90 46.524 80.3937 36.9229 68.552 36.9229ZM82.3836 63.3628H73.548V72.2014C73.548 73.3325 72.6299 74.2486 71.4978 74.2486H65.6071C64.473 74.2486 63.5559 73.3325 63.5559 72.2014V63.3628H54.7173C53.5873 63.3628 52.6702 62.4467 52.6702 61.3136V55.4219C52.6702 54.2909 53.5873 53.3727 54.7173 53.3727H63.5559V44.5362C63.5559 43.4041 64.473 42.485 65.6071 42.485H71.4978C72.6289 42.485 73.548 43.4031 73.548 44.5362V53.3727H82.3846C83.5146 53.3727 84.4348 54.2899 84.4348 55.4219V61.3136C84.4338 62.4467 83.5146 63.3628 82.3836 63.3628Z" fill="white"/>
<path d="M42.8029 58.3691C42.8029 44.1485 54.3324 32.619 68.553 32.619C71.3504 32.619 74.0414 33.0714 76.5635 33.8964C76.2892 21.1999 66.9941 11 55.5587 11C48.4039 11 42.0833 14.994 38.2879 21.0925C34.4914 14.994 28.1719 11 21.0171 11C9.40974 11 0 21.508 0 34.4706C0 39.5936 1.47088 44.3338 3.96431 48.1937C3.96431 48.1937 15.9616 67.9815 38.2879 78.0217C41.5562 76.5519 44.5972 74.8691 47.4182 73.0738C44.5112 68.9027 42.8029 63.837 42.8029 58.3691Z" fill="white"/>
</svg>
