<svg width="90" height="90" viewBox="0 0 90 90" fill="none" xmlns="http://www.w3.org/2000/svg">
<path d="M84.3766 34.6597H68.483C67.5256 34.6597 66.5681 35.4256 66.5681 36.5746V88.0852C66.5681 89.0426 67.3341 90.0001 68.483 90.0001H84.3766C85.3341 90.0001 86.2915 89.2341 86.2915 88.0852V36.5746C86.2915 35.6171 85.5256 34.6597 84.3766 34.6597Z" fill="white"/>
<path d="M56.6107 47.1064H40.7171C39.7596 47.1064 38.8022 47.8724 38.8022 49.0213V88.0852C38.8022 89.0426 39.5681 90.0001 40.7171 90.0001H56.6107C57.5681 90.0001 58.5256 89.2341 58.5256 88.0852V49.0213C58.5256 47.8724 57.5681 47.1064 56.6107 47.1064Z" fill="white"/>
<path d="M28.6533 57.8301H12.9511C11.9937 57.8301 11.0363 58.596 11.0363 59.745V88.0854C11.0363 89.0428 11.8022 90.0003 12.9511 90.0003H28.8448C29.8022 90.0003 30.7597 89.2343 30.7597 88.0854V59.745C30.5682 58.596 29.8022 57.8301 28.6533 57.8301Z" fill="white"/>
<path d="M86.2915 0H72.5043C70.9724 0 69.8234 1.14894 69.8234 2.68085C69.8234 4.21277 70.9724 5.3617 72.5043 5.3617H78.632C79.0149 5.3617 79.3979 5.93617 79.0149 6.31915L56.0362 27.1915C55.4617 27.5745 54.6958 27.5745 54.3128 27.1915L38.2277 13.4043C37.2703 12.4468 35.7383 12.6383 34.7809 13.4043L0.887273 45.5745C-0.261664 46.5319 -0.261664 48.2553 0.695783 49.2128C1.27025 49.7872 1.84472 49.9787 2.61068 49.9787C3.18514 49.9787 3.9511 49.7872 4.33408 49.2128L35.7383 19.5319C36.3128 19.1489 37.0788 18.9574 37.4617 19.5319L53.5468 33.3191C54.5043 34.2766 56.0362 34.0851 56.9937 33.3191L82.8447 9.76596C83.2277 9.38298 83.8022 9.76596 83.8022 10.1489V16.2766C83.8022 17.8085 84.9511 18.9574 86.483 18.9574C88.0149 18.9574 89.1639 17.8085 89.1639 16.2766V2.68085C88.9724 1.14894 87.8234 0 86.2915 0Z" fill="white"/>
</svg>
