<svg width="30" height="30" viewBox="0 0 30 30" fill="none" xmlns="http://www.w3.org/2000/svg">
<path d="M26.9912 9.00376C26.8488 8.47551 26.5706 7.99376 26.1841 7.60647C25.7977 7.21917 25.3166 6.93983 24.7887 6.79626C22.8312 6.25876 14.9999 6.25001 14.9999 6.25001C14.9999 6.25001 7.16992 6.24126 5.21117 6.75501C4.68358 6.90519 4.20345 7.18848 3.81688 7.57768C3.43031 7.96687 3.15028 8.44891 3.00367 8.97751C2.48742 10.935 2.48242 14.995 2.48242 14.995C2.48242 14.995 2.47742 19.075 2.98992 21.0125C3.27742 22.0838 4.12117 22.93 5.19367 23.2188C7.17117 23.7563 14.9812 23.765 14.9812 23.765C14.9812 23.765 22.8124 23.7738 24.7699 23.2613C25.298 23.1179 25.7796 22.8392 26.167 22.4527C26.5544 22.0662 26.8342 21.5853 26.9787 21.0575C27.4962 19.1013 27.4999 15.0425 27.4999 15.0425C27.4999 15.0425 27.5249 10.9613 26.9912 9.00376ZM12.4949 18.7563L12.5012 11.2563L19.0099 15.0125L12.4949 18.7563Z" fill="white"/>
</svg>
